<svg width="142" height="34" viewBox="0 0 142 34" fill="none" xmlns="http://www.w3.org/2000/svg">
<path d="M7.896 20.656C7.848 21.76 7.752 22.864 7.632 23.944C7.464 25.744 6.456 27.16 4.464 27.16C2.424 27.16 1.44 25.744 1.272 23.944C0.792 19.384 0.792 14.368 1.272 9.832C1.44 8.056 2.424 6.64 4.464 6.64C6.456 6.64 7.464 8.056 7.632 9.832C7.752 10.912 7.848 12.016 7.896 13.12C9.12 12.832 10.464 12.808 11.688 13.096C11.76 11.992 11.832 10.912 11.952 9.832C12.144 8.056 13.128 6.64 15.12 6.64C17.136 6.64 18.144 8.056 18.336 9.832C18.792 14.368 18.792 19.384 18.336 23.944C18.144 25.744 17.136 27.16 15.12 27.16C13.128 27.16 12.144 25.744 11.952 23.944C11.832 22.864 11.76 21.784 11.688 20.68C10.464 20.968 9.12 20.944 7.896 20.656ZM23.3372 26.248C21.1772 24.88 20.1212 22.384 20.0732 19.912C20.0252 16.936 21.3212 13.96 23.7932 12.808C24.9932 12.256 26.3372 11.992 27.6092 11.992C31.0172 11.992 33.9452 13.672 33.7292 17.464C33.6092 19.744 32.4572 20.8 30.0332 21.376C28.7852 21.688 26.8652 21.592 26.1452 20.44C26.0252 20.248 25.4732 20.248 25.5452 20.704C25.6412 21.4 26.8412 22.36 28.5452 22.36C28.8572 22.36 29.3132 22.264 29.6012 22.192C31.7612 21.568 32.6972 21.544 33.3692 23.536C33.8972 25.048 33.0812 26.176 30.7052 26.92C29.5532 27.28 28.8092 27.328 27.6332 27.328C26.0972 27.328 24.5852 27.04 23.3372 26.248ZM26.5292 17.248C27.7532 16.912 28.7612 16.96 29.9132 17.2C30.2972 17.248 30.5132 16.432 29.9612 16.336C28.8332 16.096 27.5372 15.904 26.4572 16.36C25.9772 16.552 26.1452 17.344 26.5292 17.248ZM41.9473 21.736C43.6273 21.904 44.7073 22.336 44.7073 24.232C44.7073 26.8 41.1793 27.184 38.7553 27.16C36.7153 27.136 35.5153 25.744 35.3473 23.944C34.8913 19.384 34.8913 14.368 35.3473 9.832C35.5153 8.056 36.5233 6.64 38.5633 6.64C40.5313 6.64 41.5393 8.056 41.7073 9.832C42.0673 13.336 42.1873 18.088 41.9473 21.736ZM52.2129 21.736C53.8929 21.904 54.9729 22.336 54.9729 24.232C54.9729 26.8 51.4449 27.184 49.0209 27.16C46.9809 27.136 45.7809 25.744 45.6129 23.944C45.1569 19.384 45.1569 14.368 45.6129 9.832C45.7809 8.056 46.7889 6.64 48.8289 6.64C50.7969 6.64 51.8049 8.056 51.9729 9.832C52.3329 13.336 52.4529 18.088 52.2129 21.736ZM55.1586 20.008C55.1826 15.328 58.2546 11.992 62.9826 11.992C67.7586 11.992 70.0386 16.048 70.0386 20.008C69.9906 24.016 67.1826 27.568 62.9106 27.568C58.4466 27.568 55.1586 24.328 55.1586 20.008ZM61.8786 21.352C61.6866 21.712 62.3826 22.072 62.7186 21.616C63.3666 20.656 63.5346 19.36 63.5586 18.16C63.5826 17.608 62.7666 17.632 62.7426 18.04C62.6466 19.216 62.4546 20.2 61.8786 21.352ZM71.6046 13.264C71.6046 11.272 72.9006 10 74.8206 10C76.7646 10 77.9886 11.272 77.9886 13.264C77.9886 14.944 76.6446 16.144 74.8206 16.144C72.9246 16.144 71.6046 14.944 71.6046 13.264ZM71.6046 21.88C71.6046 19.888 72.9006 18.592 74.8206 18.592C76.7646 18.592 77.9886 19.888 77.9886 21.88C77.9886 23.536 76.6446 24.76 74.8206 24.76C72.9246 24.76 71.6046 23.536 71.6046 21.88Z" fill="#333333"/>
<path d="M86.875 25.5V8.53125H88.9844V16.0781H97.9609V8.53125H100.094V25.5H97.9609V17.9297H88.9844V25.5H86.875ZM104.852 30.2812C104.406 30.2812 103.984 30.2578 103.727 30.2344V28.4297C103.938 28.4531 104.406 28.4766 104.711 28.4766C105.531 28.4766 106.211 28.4062 106.891 26.5547L107.266 25.5938L102.555 12.7734H104.758L108.227 22.875H108.367L111.836 12.7734H114.039L108.648 27.3281C107.898 29.3203 106.656 30.2812 104.852 30.2812ZM124.305 20.2734V12.7734H126.297V25.5H124.305V23.3438H124.164C123.555 24.6328 122.312 25.6641 120.391 25.6641C117.977 25.6641 116.266 24.0938 116.266 20.8594V12.7734H118.281V20.7188C118.281 22.5469 119.43 23.7188 121.047 23.7188C122.477 23.7188 124.305 22.6406 124.305 20.2734ZM131.547 17.8594V25.5H129.531V12.7734H131.477V14.7656H131.641C132.25 13.4766 133.422 12.6094 135.367 12.6094C137.945 12.6094 139.656 14.1797 139.656 17.4141V25.5H137.641V17.5547C137.641 15.5859 136.562 14.4141 134.758 14.4141C132.906 14.4141 131.547 15.6562 131.547 17.8594Z" fill="#333333"/>
</svg>
